<svg width="18" height="16" viewBox="0 0 18 16" fill="none" xmlns="http://www.w3.org/2000/svg">
<path d="M1.5 6.26215C1.5 5.4051 2.19478 4.71033 3.05183 4.71033V4.71033C3.63391 4.71033 4.16705 4.38458 4.43267 3.86663L5.11111 2.54366C5.45217 1.8786 6.13673 1.46033 6.88414 1.46033H11.1159C11.8633 1.46033 12.5478 1.8786 12.8889 2.54366L13.5673 3.86663C13.8329 4.38458 14.3661 4.71033 14.9482 4.71033V4.71033C15.8052 4.71033 16.5 5.4051 16.5 6.26215V10.2818C16.5 11.3785 16.5 11.9269 16.3583 12.3714C16.0631 13.2976 15.3373 14.0234 14.411 14.3187C13.9665 14.4603 13.4182 14.4603 12.3214 14.4603H5.67857C4.58184 14.4603 4.03347 14.4603 3.58897 14.3187C2.66269 14.0234 1.93691 13.2976 1.64167 12.3714C1.5 11.9269 1.5 11.3785 1.5 10.2818V6.26215Z" stroke="black" stroke-width="1.2"/>
<path d="M8.99997 10.7252L10.1063 11.3981L9.23423 12.3786" stroke="black" stroke-width="0.7" stroke-linecap="round"/>
<path d="M11.5981 10.0953C11.9283 9.49611 12.0605 8.79954 11.9743 8.11361C11.8881 7.42768 11.5883 6.79072 11.1213 6.3015C10.6543 5.81229 10.0463 5.49817 9.39158 5.40787C8.73683 5.31756 8.07193 5.45612 7.5 5.80204C6.92807 6.14797 6.48109 6.68193 6.22836 7.32112C5.97564 7.96031 5.9313 8.66899 6.10222 9.33727C6.27315 10.0055 6.64978 10.5961 7.17372 11.0172C7.69765 11.4384 8.3396 11.6667 9 11.6667" stroke="black" stroke-linecap="round"/>
</svg>
