<svg width="11" height="14" viewBox="0 0 11 14" fill="none" xmlns="http://www.w3.org/2000/svg">
<path d="M6.61199 4.79541H6.04998V2.37335C6.04998 2.36148 6.04998 2.34966 6.04998 2.33789C6.05001 1.99215 6.05004 1.68275 6.02291 1.45545C6.009 1.3389 5.98293 1.1916 5.91692 1.055C5.84277 0.901536 5.69962 0.728676 5.45628 0.66373C5.21295 0.598783 5.0027 0.67732 4.86193 0.773422C4.73663 0.85896 4.64063 0.973675 4.57049 1.06779C4.43371 1.25134 4.27956 1.5196 4.1073 1.81937C4.10143 1.82958 4.09554 1.83983 4.08963 1.85012L2.05865 5.38381L2.03605 5.42313C1.67246 6.05569 1.36858 6.58435 1.19828 7.01794C1.02261 7.46522 0.927973 7.9611 1.19977 8.43081C1.47157 8.90051 1.94865 9.06556 2.42399 9.13614C2.88477 9.20455 3.49455 9.20452 4.22416 9.2045L4.2695 9.20449H4.94998V11.5591L4.94998 11.5944C4.94995 11.9521 4.94992 12.2698 4.97718 12.5023C4.9911 12.6211 5.01707 12.7701 5.08274 12.9077C5.15623 13.0618 5.30068 13.2399 5.55041 13.3042C5.80014 13.3686 6.01266 13.2824 6.15144 13.1831C6.27543 13.0943 6.37019 12.9763 6.43975 12.8791C6.57593 12.6887 6.7294 12.4105 6.9022 12.0974L6.91929 12.0664L8.83347 8.59763L8.83348 8.59762L8.84461 8.57744L8.86642 8.53794C9.21261 7.91064 9.50245 7.38547 9.66287 6.9551C9.82877 6.51003 9.91337 6.01924 9.64077 5.55746L9.16714 5.83705L9.64077 5.55746C9.36817 5.09567 8.89759 4.93261 8.42776 4.86283C7.97344 4.79535 7.37359 4.79537 6.6571 4.7954L6.61199 4.79541Z" stroke="black" stroke-width="1.1"/>
<path d="M9.99998 1.99997L2.5 12.5" stroke="black" stroke-linecap="round"/>
</svg>
