<svg width="27" height="27" viewBox="0 0 27 27" fill="none" xmlns="http://www.w3.org/2000/svg">
<path fill-rule="evenodd" clip-rule="evenodd" d="M26.0135 7.97697V19.0217C26.0135 23.1138 23.4526 26 19.3604 26H7.63957C3.54743 26 1 23.1138 1 19.0217V7.97697C1 3.88482 3.56098 1 7.63957 1H19.3604C23.4526 1 26.0135 3.88482 26.0135 7.97697Z" stroke="#53575D" stroke-width="1.5" stroke-linecap="round" stroke-linejoin="round"/>
<path d="M4.42993 19.5376L6.50039 17.3519C7.2199 16.5891 8.41909 16.5525 9.18332 17.2706C9.20635 17.2937 10.453 18.5606 10.453 18.5606C11.205 19.3262 12.434 19.3384 13.1996 18.5877C13.2497 18.5389 16.3622 14.7639 16.3622 14.7639C17.1644 13.7896 18.6047 13.65 19.5803 14.4536C19.6454 14.5078 22.5858 17.5254 22.5858 17.5254" stroke="#53575D" stroke-width="1.5" stroke-linecap="round" stroke-linejoin="round"/>
<path fill-rule="evenodd" clip-rule="evenodd" d="M11.2475 9.64891C11.2475 10.9619 10.1838 12.0256 8.87077 12.0256C7.55777 12.0256 6.49408 10.9619 6.49408 9.64891C6.49408 8.3359 7.55777 7.27222 8.87077 7.27222C10.1838 7.27357 11.2475 8.3359 11.2475 9.64891Z" stroke="#53575D" stroke-width="1.5" stroke-linecap="round" stroke-linejoin="round"/>
</svg>
