<?xml version="1.0" encoding="utf-8" ?><svg xmlns="http://www.w3.org/2000/svg" xmlns:xlink="http://www.w3.org/1999/xlink" width="1056" height="992" viewBox="0 0 1056 992"><path fill="#121042" d="M915.411 122.719C922 122.209 929.442 120.935 934.884 125.686C937.961 128.372 939.363 132.281 939.588 136.28C939.942 141.795 938.002 147.211 934.229 151.249C931.469 154.234 927.591 156.52 923.457 156.713C919.861 156.88 916.971 155.458 914.383 153.075C914.335 153.031 914.29 152.983 914.244 152.937C908.495 153.614 902.317 153.607 896.677 154.827C885.662 157.211 868.326 164.95 857.548 169.409C850.599 172.626 843.135 175.148 836.343 178.63C831.271 191.117 828.911 205.115 826.084 218.234C829.091 217.771 833.163 216.862 835.871 218.747C836.613 219.262 836.447 219.611 836.531 220.391C835.331 222.712 833.187 224.412 830.71 225.262C828.642 225.972 826.415 226.427 824.289 226.942C821.529 236.552 819.892 246.729 817.82 256.518L805.676 313.725C801.571 333.072 797.243 352.371 792.694 371.619C790.122 382.393 786.977 393.057 784.753 403.908C781.936 418.356 779.006 432.782 775.965 447.185C774.381 455 773.182 463.073 771.039 470.746C774.625 470.62 777.888 470.295 781.132 472.116L781.3 473.529C777.889 477.012 773.679 477.341 769.142 478.137C763.991 503.248 758.194 528.251 752.883 553.334C747.935 576.697 743.533 600.139 738.033 623.39C749.59 646.903 762.165 670.156 774.942 693.036C783.24 707.894 800.131 734.612 804.401 750.439C806.46 758.071 805.897 767.568 803.38 775.028C797.827 791.35 786.019 804.797 770.552 812.415C762.037 816.543 753.312 818.666 743.993 819.962C736.601 821.94 728.659 822.755 721.1 823.919C712.94 825.175 704.763 826.718 696.583 827.79C688.638 828.831 673.625 829.268 667.092 832.294C662.718 833.976 656.738 834.001 652.007 834.629L622.592 838.638L525.986 852.122L505.389 854.796C502.278 855.221 498.828 856.142 495.719 856.001C493.167 856.541 490.619 857.102 488.076 857.684C487.027 866.17 485.85 874.64 484.545 883.09C486.339 884.158 488.242 885.162 489.932 886.386C493.478 887.939 497.261 891.779 499.711 894.733C507.096 903.636 511.589 916.646 510.431 928.228C509.249 940.058 501.706 952.296 492.557 959.691C483.353 967.13 471.522 971.059 459.684 969.667C446.899 968.174 435.234 961.654 427.265 951.546C419.284 941.405 416.814 929.594 418.41 916.932C420.038 904.007 425.794 893.356 436.085 885.361C432.316 884.871 428.587 884.49 424.971 883.265C413.983 879.542 406.786 869.959 401.934 859.931C366.177 859.107 330.415 855.246 294.802 852.118C283.946 851.165 264.485 850.914 254.987 848.607C252.382 847.589 211.448 843.948 207.42 844.295C196.026 842.893 174.361 839.953 164.583 834.451C162.533 833.297 159.975 831.416 159.587 828.904C159.401 827.695 159.801 826.552 160.461 825.561C163.563 820.903 172.235 818.206 177.39 816.705C193.328 812.065 210.289 809.86 226.566 806.622C268.492 798.282 310.725 791.561 352.769 783.827C369.806 780.693 387.031 777.978 403.885 773.972C405.859 771.061 407.666 767.786 411.203 766.674C416.292 765.074 421.969 764.494 427.217 763.397C434.294 761.917 444.725 757.861 451.818 758.44C454.9 758.691 458.789 761.511 461.541 763.028C465.802 761.421 469.021 759.214 471.996 755.797C479.265 747.45 489.318 727.54 489.424 716.345C489.497 708.643 485.149 699.394 482.628 692.173C477.157 676.499 465.008 644.445 464.027 628.421C464.019 628.28 464.014 628.139 464.007 627.998C452.647 627.472 441.139 627.985 429.755 627.866L349.852 626.989C306.894 626.561 263.939 624.851 220.989 624.22C202.869 624.062 184.751 623.775 166.635 623.36C160.978 623.239 153.486 624.266 148.143 622.626C146.579 622.146 145.998 621.479 145.245 620.076C145.22 618.608 145.071 617.324 145.819 615.999C150.369 613.771 167.093 614.778 172.745 614.713C170.584 600.864 169.544 586.752 167.757 572.84C165.618 556.192 162.34 538.987 162.195 522.209C154.613 521.906 136.515 523.204 130.511 521.284C129.318 520.902 128.781 520.293 128.357 519.111C127.869 517.749 128.054 516.933 128.655 515.693C133.871 511.451 153.741 513.422 161.08 513.575C158.919 499.472 157.482 485.144 155.793 470.969C154.223 457.784 152.31 444.727 151.601 431.448C143.729 430.984 135.803 431.556 127.952 431.011C125.802 430.862 123.925 430.772 122.481 429.135C122.16 427.678 121.988 426.855 122.541 425.396C126.491 421.314 144.492 422.617 150.48 422.508C150.406 416.382 148.901 409.875 148.166 403.769L142.848 358.468C141.295 346.152 138.493 332.536 139.161 320.117C130.695 319.059 122.024 320.367 113.52 319.978C112.335 319.923 110.507 319.83 109.741 318.801C108.609 317.282 108.779 315.457 109.084 313.698C110.145 312.413 110.844 312.318 112.423 311.88C117.842 310.378 123.593 309.681 129.103 308.454C143.554 305.234 158.097 301.916 172.273 297.633C203.661 288.15 234.583 276.506 265.539 265.674L375.979 228.141C401.17 219.618 426.259 210.56 451.655 202.686C452.049 192.064 454.748 175.867 459.55 166.33C460.599 164.246 461.725 163.018 463.707 161.804C469.768 158.092 477.777 156.07 484.485 153.691C495.9 149.582 507.339 145.544 518.803 141.576C518.956 141.587 519.108 141.602 519.261 141.609C523.796 141.841 530.149 137.613 534.134 139.341C534.778 140.289 534.93 142.064 534.718 143.183C534.465 144.52 533.872 144.789 532.743 145.404C532.358 145.613 531.819 145.845 531.407 146.029C517.188 151.064 502.728 155.53 488.473 160.498C482.955 162.422 476.494 164.087 471.405 166.942C469.425 168.053 468.231 169.15 467.23 171.189C463.514 178.76 460.637 193.994 459.238 202.587C484.478 201.742 509.781 202.469 535.031 202.562L714.375 203.953C749.752 204.24 785.127 205.16 820.492 203.983C822.537 195.409 825.627 180.686 829.655 173.263C838.389 166.712 865.075 157.848 876.093 153.866C880.52 153.648 899.172 145.124 904.593 142.932C904.717 138.144 904.572 133.092 907.157 128.842C908.944 125.903 912.005 123.853 915.323 123.092L915.411 122.719ZM466.381 769.901C463.512 774.66 462.363 796.233 462.422 802.654C470.225 806.557 478.066 812.51 482.524 820.188C482.854 820.455 483.151 820.921 483.397 821.255C489.248 829.215 490.461 839.12 488.959 848.694C521.778 844.54 554.388 839.126 587.178 834.846L647.887 826.876C660.502 825.193 673.255 823.752 685.768 821.42C686.86 819.564 688.067 817.487 689.563 815.927C691.034 814.393 693.069 813.824 695.072 813.326C700.126 812.069 705.536 811.91 710.685 811.107C719.603 809.717 729.193 807.057 738.178 806.985C742.1 806.953 744.033 808.698 746.672 811.258C747.36 811.131 748.047 810.996 748.733 810.854C765.434 807.434 780.232 799.033 789.705 784.525C795.378 775.835 797.604 765.771 795.883 755.515C793.393 740.673 783.915 726.849 776.615 713.933L764.296 691.661C757.18 678.599 750.198 665.465 743.349 652.26C739.725 645.331 734.004 636.543 732.526 628.916C732.498 628.772 732.477 628.626 732.452 628.482C703.634 629.016 674.695 628.138 645.86 628.082L472.401 627.994C476.944 648.543 484.181 669.001 490.788 688.965C493.282 696.501 498.137 706.798 498.867 714.514C499.29 718.982 497.574 724.096 496.041 728.226C490.484 743.198 481.693 762.949 466.381 769.901ZM645.706 262.533C647.626 256.095 648.586 249.132 649.919 242.521C651.893 232.268 654.182 222.078 656.782 211.966C635.106 212.131 613.462 211.683 591.791 211.496L512.508 211.121L474.827 210.867C467.91 210.812 460.523 210.085 453.694 211.175C447.581 212.152 440.684 215.474 434.74 217.48L388.826 232.899L238.92 284.145C211.137 293.553 183.349 303.875 154.87 310.951L152.576 311.757L152.559 312.283C153.756 312.542 154.735 312.613 155.958 312.563C160.901 312.431 165.892 312.853 170.847 312.866L211.645 312.913L356.861 313.429L398.839 313.522C407.763 313.549 416.843 313.886 425.737 313.169C442.817 311.792 459.935 307.911 476.662 304.314C508.319 297.28 539.831 289.608 571.178 281.302C595.96 274.921 621.236 270.079 645.706 262.533ZM245.924 811.458L243.845 812.274L243.846 812.952C248.472 815.136 252.13 817.06 253.98 822.176C255.932 827.575 254.985 834.16 255.19 839.833C268.565 840.047 282.102 842.493 295.452 843.549C321.557 845.615 347.799 848.089 373.942 849.488C382.452 849.944 390.964 849.743 399.475 850.063C399.597 846.979 399.641 843.869 399.871 840.792C400.401 835.81 401.261 831.408 403.083 826.706C406.146 818.798 412.275 808.18 420.421 804.615C420.827 804.13 421.069 803.58 421.36 803.021C421.077 798.075 419.93 793.741 417.401 789.45C415.103 785.549 413.031 783.498 408.618 782.326C397.331 783.722 386.044 786.335 374.828 788.298L281.417 805.149C271.482 806.855 255.196 810.98 245.924 811.458ZM765.537 242.558C758.014 274.829 750.793 307.171 743.875 339.577C742.977 343.702 738.415 361.218 738.504 363.777C738.515 364.114 738.822 364.371 738.981 364.668L771.042 358.759C776.256 357.766 782.017 357.075 787.047 355.449C789.752 344.608 791.795 333.579 794.237 322.673C798.675 302.854 803.33 283.044 807.48 263.162C809.741 252.328 811.444 241.279 813.989 230.525L813.661 230.121C797.693 234.475 781.421 237.988 765.537 242.558ZM363.063 426.916C373.171 427.019 383.406 427.437 393.502 426.987C400.658 426.668 407.743 425.599 414.873 425.005C415.697 401.76 415.409 378.306 415.454 355.039C415.475 344.361 415.136 333.541 415.804 322.885C396.752 323.817 377.641 322.135 358.605 322.707C359.252 332.805 359.357 342.884 359.779 352.985L362.025 400.461C362.394 409.251 362.358 418.154 363.063 426.916ZM715.657 488.665C711.805 502.721 709.938 517.682 707.212 532.005L690.541 619.676L691.053 620.175C703.792 620.649 717.277 620.923 729.964 619.713C732.06 605.01 735.787 590.499 738.952 575.997L753.312 508.505C754.547 502.534 755.707 496.536 757.057 490.589C757.75 487.536 759.288 483.531 759.328 480.45L758.95 480.21L715.657 488.665ZM594.283 284.548C592.687 298.689 589.245 312.603 587.225 326.704C583.923 349.754 581.833 372.993 578.183 395.992L578.789 396.251C593.913 393.124 611.566 390.472 626.222 386.319C632.661 348.835 636.956 311.088 643.248 273.608L642.378 273.384C626.335 277.075 610.26 280.576 594.283 284.548ZM653.084 271.099C647.236 301.665 643.891 332.762 639.012 363.502C637.884 370.61 637.032 377.847 635.619 384.899L636.005 385.115C651.03 382.118 666.663 379.63 681.389 375.426C685.27 347.012 690.298 318.604 695.28 290.36C697.107 280.003 698.293 269.511 700.42 259.212L700.246 259.043C689.49 261.498 678.78 264.152 668.123 267.004C663.102 268.3 657.925 269.208 653.084 271.099ZM423.892 322.218L423.363 397.543C423.338 405.505 422.121 416.389 423.063 423.966L423.962 424.195C439.428 421.83 454.772 419.511 470.128 416.474C470.617 394.919 472.581 373.353 474.307 351.867C475.308 339.418 475.659 326.262 477.747 313.982C477.216 313.685 477.455 313.679 477.058 313.782C459.171 315.891 442.132 322.156 423.892 322.218ZM665.101 497.006C662.423 511.614 642.268 613.832 644.35 619.981L645.434 619.999L681.809 620.005C688.21 581.255 696.683 542.821 703.39 504.111C703.702 502.315 706.336 491.127 706.278 490.532C706.255 490.29 706.051 490.102 705.937 489.887L705.254 490.092C691.82 492.252 678.608 495.162 665.101 497.006ZM709.772 256.557C709.021 267.858 706.061 279.152 704.021 290.285C700.498 309.514 697.681 328.882 694.449 348.16C693.053 356.481 690.623 364.954 689.675 373.285C690.198 373.88 689.891 373.738 690.523 373.842C703.329 371.68 716.085 369.235 728.783 366.509C732.508 355.288 734.298 342.75 736.823 331.178L749.43 275.583C751.611 265.7 753.134 255.647 755.621 245.842L755.021 245.651C740.039 249.123 724.501 252.199 709.772 256.557ZM736.492 373.724C734.667 385.035 715.988 476.724 717.429 479.018C732.231 476.518 747.208 474.579 761.843 471.178C765.318 449.701 770.266 428.194 774.872 406.93C777.845 393.201 780.286 378.741 784.466 365.343L784.081 365.214C768.381 368.812 752.174 370.208 736.492 373.724ZM311.54 426.122C325.852 426.135 340.164 426.237 354.476 426.427C353.392 407.514 352.844 388.601 351.953 369.684C351.214 353.993 350.171 338.438 350.133 322.718C334.575 322.374 318.665 321.619 303.135 322.293C304.697 336.57 305.2 350.939 306.574 365.237C308.498 385.256 311.415 406.014 311.54 426.122ZM567.54 407.492C554.619 409.988 541.674 412.357 528.706 414.599C527.399 440.197 522.864 465.8 520.67 491.373C520.193 496.933 518.634 503.91 519.34 509.399C520.313 509.921 519.793 509.804 520.899 509.749C532.699 508.171 544.555 506.761 556.304 504.842C557.148 494.83 568.594 408.473 568.456 407.924C568.4 407.699 568.178 407.553 568.039 407.368L567.54 407.492ZM478.012 423.865C478.172 432.1 477.471 440.293 477.022 448.508L474.44 491.364C474.077 497.347 472.418 508.815 473.606 514.368L474.766 514.635C486.602 513.306 499.106 512.888 510.776 511.07C511.316 500.706 512.105 490.356 513.141 480.03C514.013 471.425 520.806 420.624 519.616 416.717C518.675 416.739 519.007 416.609 518.553 416.833C504.967 418.769 491.585 421.85 478.012 423.865ZM464.329 514.773C464.805 508.825 464.841 502.808 465.202 496.843C466.309 480.929 467.251 465.003 468.028 449.069C468.296 443.897 469.845 430.111 469.462 426.032L468.678 426.11C453.356 428.091 438.378 431.068 422.956 432.658C424.153 450.287 424.258 467.847 424.616 485.5C424.825 495.808 425.49 506.083 425.517 516.4C438.46 516.019 451.399 515.476 464.329 514.773ZM253.709 433.199C238.934 431.981 224.064 432.919 209.299 431.584C211.049 443.868 212.055 456.226 213.615 468.532C215.563 483.906 218.037 499.35 218.782 514.846C232.921 514.598 247.139 514.946 261.285 515.075C261.561 510.382 260.648 505.228 260.197 500.532C259.286 490.847 258.287 481.172 257.201 471.505C256.207 462.402 255.289 453.291 254.446 444.172C254.13 440.526 254.151 436.825 253.709 433.199ZM210.211 513.704L205.38 471.388C203.757 458.193 201.779 444.948 201.562 431.632C193.211 431.229 184.916 431.137 176.558 431.107C171.23 431.088 165.59 431.375 160.301 430.746C161.831 446.412 163.539 461.968 165.551 477.582C167.093 489.554 169.148 501.87 169.76 513.913C177.345 513.862 205.204 515.009 210.211 513.704ZM564.826 503.894C578.923 501.831 593.068 499.315 607.209 497.636C610.637 470.086 616.387 442.799 620.952 415.416C621.674 411.086 624.829 399.028 624.791 395.738C609.254 399.791 593.161 402.34 577.38 405.297C575.145 430.863 570.736 456.25 567.636 481.727C566.782 488.747 564.683 496.876 564.826 503.894ZM269.537 515.591C283.302 515.797 297.029 515.629 310.784 515.693C309.471 505.819 309.142 495.63 308.304 485.682C306.862 468.558 305.161 451.407 304.168 434.254C289.866 433.806 275.563 433.43 261.258 433.125C263.227 445.49 264.113 458.107 265.329 470.565C266.795 485.577 268.5 500.538 269.537 515.591ZM328.567 617.861C340.334 617.521 352.284 618.833 363.999 618.036C362.104 586.978 360.8 555.887 360.087 524.78C346.693 524.372 333.294 524.32 319.903 523.871C322.357 545.119 324.42 566.41 326.09 587.734C326.933 597.709 328.49 607.854 328.567 617.861ZM368.421 524.755C371.258 555.932 371.527 587.413 373.398 618.672C379.205 618.735 417.92 619.811 420.235 618.057C418.265 601.083 418.524 583.297 418.29 566.22C418.102 552.421 417.473 538.652 417.219 524.86C401.014 525.328 384.619 525.456 368.421 524.755ZM464.144 523.479L455.681 523.583C445.552 524.084 435.486 524.144 425.359 524.409C425.615 541.23 426.083 558.046 426.762 574.854C427.461 589.458 428.824 604.462 428.487 619.07L435.832 618.993C443.79 619.038 451.802 618.897 459.751 619.255C459.633 599.693 461.366 580.463 462.246 560.961C462.773 549.254 462.217 534.777 464.144 523.479ZM355.738 435.288C341.209 434.525 326.624 434.721 312.13 433.931C314.923 461.283 317.332 488.673 319.356 516.092C332.843 516.077 346.548 515.86 360 516.864C358.845 500.007 357.816 483.141 356.912 466.269C356.349 456.043 355.502 445.517 355.738 435.288ZM363.306 435.098C366.142 461.941 366.347 488.86 368.229 515.741C368.291 516.633 368.276 516.347 368.807 517.248L369.575 517.351C385.287 516.761 401.044 517.718 416.736 516.637C415.961 489.304 415.415 461.965 415.098 434.622L409.525 434.926C394.112 435.754 378.721 435.026 363.306 435.098ZM554.411 514.366C542.311 515.685 530.144 516.95 518.07 518.446C518.276 527.026 517.189 535.827 516.464 544.381C514.867 563.202 512.653 581.966 510.938 600.779C510.562 604.896 508.793 615.938 509.7 619.294L510.106 619.495C520.592 619.639 531.274 620.06 541.728 619.22C544.592 600.496 546.344 581.534 548.714 562.735C550.249 550.83 551.71 538.917 553.095 526.994C553.587 522.875 554.456 518.755 554.788 514.63L554.411 514.366ZM743.152 239.033C747.969 237.816 753.029 236.83 757.709 235.176C758.252 227.809 758.759 220.349 760.081 213.072C746.576 213.002 733.099 213.138 719.609 212.426C717.153 224.104 713.816 235.407 710.934 246.963L743.152 239.033ZM817.053 213.13C810.725 213.695 803.917 213.009 797.529 213.039C788.202 213.083 778.665 213.862 769.364 213.109C768.997 219.858 768.16 226.803 766.434 233.35C779.924 229.46 793.776 226.875 807.344 223.256L815.691 221.225L817.053 213.13ZM664.357 211.853C663.36 225.069 657.824 247.574 654.633 261.112C667.177 258.246 679.739 255.148 692.036 251.351C695.602 250.321 699.244 249.387 702.689 247.998C704.576 236.103 707.476 224.042 711.005 212.531C695.516 212.534 679.804 211.478 664.357 211.853ZM553.652 619.533C565.124 619.65 576.717 620.104 588.173 619.428C589.198 612.303 589.759 605.132 590.838 598.014C595.44 567.654 600.933 537.415 605.061 506.982C604.1 506.669 603.555 506.812 602.587 507.04C595.557 507.662 588.606 508.989 581.618 509.958C575.699 510.778 569.738 511.279 563.824 512.124C562.357 524.623 549.882 614.742 550.977 619.086C551.933 619.556 552.599 619.547 553.652 619.533ZM472.313 522.487C472.434 535.161 467.365 617.064 468.881 619.653C479.502 619.688 490.141 619.85 500.758 619.464C501.815 606.774 510.417 523.199 509.469 520.084C497.029 520.714 484.805 522.28 472.313 522.487ZM170.603 827.769C179.603 833.103 195.618 833.864 206.027 835.52C205.515 832.108 204.627 827.609 205.472 824.24C205.892 822.564 206.646 821.037 207.001 819.334L202.466 819.404C199.62 820.624 196.019 820.968 192.957 821.578C185.229 823.117 177.87 824.582 170.603 827.769ZM181.641 615.02C195.168 614.98 208.662 616.127 222.195 615.769C218.359 584.911 215.572 553.83 211.278 523.037C197.792 522.448 183.744 521.366 170.273 521.956C173.355 542.291 175.253 562.817 177.694 583.237C178.929 593.561 181.397 604.665 181.641 615.02ZM320.127 617.473C318.125 586.285 313.722 555.206 312.017 523.99C298.317 524.968 284.047 523.578 270.309 523.439C272.031 534.032 272.771 544.897 273.773 555.581L277.773 598.836C278.275 604.8 278.466 610.818 279.149 616.761C288.869 616.687 298.59 616.805 308.306 617.114C312.162 617.202 316.305 617.681 320.127 617.473ZM230.616 616.132C235.467 616.086 269.029 617.263 270.924 616.055C267.556 585.288 264.753 554.463 262.517 523.593C248.011 523.404 233.57 523.18 219.082 522.416C222.995 545.463 225.697 568.396 228.043 591.638C228.854 599.661 230.439 608.098 230.616 616.132ZM726.361 375.466C718.285 377.327 710.168 379.006 702.016 380.503C697.312 381.411 692.206 382 687.678 383.563C685.521 397.747 682.517 411.707 679.764 425.779C677.771 435.964 676.11 446.216 674.048 456.387C673.063 461.244 667.006 485.468 667.363 487.979L668.342 487.906C681.482 485.048 695.178 483.583 708.157 480.223C712.406 454.668 716.925 429.158 721.713 403.698C722.871 397.332 724.074 390.975 725.322 384.626C725.936 381.565 726.871 378.579 727.198 375.47L726.361 375.466ZM633.879 393.922C632.716 403.259 630.82 412.503 629.235 421.775L621.287 468.238C619.666 477.363 617.43 486.785 616.495 495.976L616.973 496.438L617.63 496.343C630.912 494.246 644.421 492.516 657.596 489.881C665.944 455.493 671.808 420.733 678.732 386.063C678.463 386.018 678.179 385.893 677.917 385.971C670.22 386.695 662.484 388.528 654.885 389.95C647.942 391.249 640.725 392.235 633.879 393.922ZM190.7 321.094C176.626 321.531 162.49 321.283 148.411 321.134C149.114 337.374 151.629 353.778 153.47 369.944C155.479 387.581 157.023 405.373 159.496 422.948C171.589 422.726 188.431 422.23 200.131 423.651C198.911 411.989 197.876 400.292 196.513 388.648C194.977 375.529 193.124 362.421 191.975 349.261C191.168 340.018 191.962 330.151 190.928 321.171L190.7 321.094ZM208.819 423.852C223.258 424.028 238.144 423.47 252.516 424.609C250.739 400.09 247.732 375.57 245.559 351.069C244.694 341.312 243.338 331.519 243.258 321.71C228.809 322.086 214.257 320.77 199.797 320.619C200.453 328.197 200.213 335.831 200.826 343.42C202.284 361.481 204.675 379.471 206.418 397.505C207.261 406.224 207.542 415.203 208.819 423.852ZM598.295 620.051C610.563 619.957 622.814 620.199 635.078 619.771C636.06 604.454 639.075 589.028 641.633 573.902C644.691 556.041 648.062 538.234 651.746 520.492C653.147 513.403 654.237 506.202 655.763 499.148L655.43 498.962C646.223 499.904 637.085 501.675 627.96 503.197C623.664 503.914 619.014 504.178 614.853 505.391C611.512 530.618 607.024 555.759 602.872 580.866C601.029 592.013 597.526 608.528 597.3 619.475C598.026 620.118 597.653 620.029 598.295 620.051ZM251.798 321.867C253.868 342.124 255.797 362.395 257.585 382.678C258.856 396.751 260.471 411.084 260.623 425.22C274.813 425.232 289.065 425.119 303.241 425.758C302.362 401.948 298.367 375.495 296.127 351.389C295.218 341.611 294.268 332.212 294.362 322.369C280.197 322.238 265.944 322.541 251.798 321.867ZM584.42 287.379C569.83 291.039 555.046 295.051 540.212 297.517C537.732 326.052 534.536 354.568 531.82 383.09C531.382 387.69 529.118 402.64 529.513 405.612L530.189 405.859C543.21 402.949 556.725 401.143 569.572 397.649C572.1 370.101 576.204 342.712 580.192 315.343C581.09 309.005 582.086 302.681 583.18 296.373C583.681 293.544 584.879 290.228 584.825 287.41L584.42 287.379ZM486.315 311.752C485.876 325.157 477.286 410.475 479.006 414.863L479.667 414.844C493.234 412.455 507.672 410.613 520.909 406.836C522.531 379.822 526.028 352.8 528.8 325.877C529.31 320.932 531.9 304.173 531.221 300.581L530.368 300.689C515.582 303.79 501.093 308.49 486.315 311.752Z"/><path fill="#7B79EC" d="M437.704 861.608C446.29 860.558 454.971 860.233 463.568 859.212C474.453 857.919 484.635 855.303 495.719 856.001C493.167 856.541 490.619 857.102 488.076 857.684C487.027 866.17 485.85 874.64 484.545 883.09C486.339 884.158 488.242 885.162 489.932 886.386L484.985 885.752C482.929 889.186 482.096 917.541 479.153 925.777C477.532 930.314 474.508 934.855 469.966 936.862C466.839 938.244 463.049 938.309 459.896 936.963C456.068 935.33 453.066 931.526 451.522 927.729C449.054 921.659 448.958 913.279 448.174 906.766C446.271 890.956 443.977 876.434 437.704 861.608Z"/><path fill="#0A7E8C" d="M915.411 122.719C922 122.209 929.442 120.935 934.884 125.686C937.961 128.372 939.363 132.281 939.588 136.28C939.942 141.795 938.002 147.211 934.229 151.249C931.469 154.234 927.591 156.52 923.457 156.713C919.861 156.88 916.971 155.458 914.383 153.075C914.335 153.031 914.29 152.983 914.244 152.937L913.178 152.446C912.497 150.173 911.446 148.17 910.987 145.791C910.245 141.951 910.071 135.192 912.073 131.703C913.462 129.281 915.538 127.165 917.084 124.815C917.47 124.228 917.324 124.595 917.105 123.572L915.323 123.092L915.411 122.719Z"/><path fill="#0B3968" d="M920.252 137.116C921.931 137.072 924.102 136.983 925.593 137.883C926.66 138.526 927.24 139.417 927.329 140.682C927.442 142.3 926.067 143.726 925.138 144.9C923.464 145.552 922.411 145.631 920.787 144.92C919.988 143.933 919.374 143.187 919.232 141.861C919.053 140.186 919.163 138.453 920.252 137.116Z"/><path fill="#61A7BA" d="M857.548 169.409L858.092 168.285C862.606 165.826 903.489 149.387 907.211 149.777C908.893 149.953 910.756 151.939 912.762 152.367C912.9 152.396 913.039 152.42 913.178 152.446L914.244 152.937C908.495 153.614 902.317 153.607 896.677 154.827C885.662 157.211 868.326 164.95 857.548 169.409Z"/><path fill="#7B79EC" d="M408.618 782.326C412.269 781.454 416.458 781.324 420.23 780.643C435.342 777.912 451.93 775.095 466.381 769.901C463.512 774.66 462.363 796.233 462.422 802.654C470.225 806.557 478.066 812.51 482.524 820.188C477.787 818.033 471.073 808.013 464.429 805.672C463.318 805.28 463.136 805.334 462.131 805.808C461.259 809.001 461.195 812.642 460.863 815.94C459.94 825.103 459.531 834.678 457.192 843.606C448.818 845.143 440.334 845.996 431.855 846.711C429.721 839.535 423.437 809.088 421.494 805.688C421.243 805.249 420.778 804.972 420.421 804.615C420.827 804.13 421.069 803.58 421.36 803.021C421.077 798.075 419.93 793.741 417.401 789.45C415.103 785.549 413.031 783.498 408.618 782.326Z"/><path fill="#7B79EC" d="M202.466 819.404C210.035 816.285 237.324 812.132 245.924 811.458L243.845 812.274L243.846 812.952C248.472 815.136 252.13 817.06 253.98 822.176C255.932 827.575 254.985 834.16 255.19 839.833C268.565 840.047 282.102 842.493 295.452 843.549C321.557 845.615 347.799 848.089 373.942 849.488C382.452 849.944 390.964 849.743 399.475 850.063C399.597 846.979 399.641 843.869 399.871 840.792C400.347 844.296 400.323 847.965 400.462 851.496C398.878 851.542 397.294 851.552 395.709 851.525C367.299 851.022 338.574 848.52 310.269 846.173C305.114 845.745 299.948 844.765 294.824 844.41C288.612 843.98 282.366 843.98 276.154 843.516C268.025 842.908 259.921 841.705 251.806 840.918C239.897 839.764 227.985 838.974 216.077 837.718C209.451 837.019 202.753 836.886 196.158 835.953C190.034 835.086 172.82 833.01 168.777 828.789L168.993 828.071L170.603 827.769C179.603 833.103 195.618 833.864 206.027 835.52C205.515 832.108 204.627 827.609 205.472 824.24C205.892 822.564 206.646 821.037 207.001 819.334L202.466 819.404Z"/><path fill="#EBE6EA" fill-opacity="0.011764706" d="M155.958 312.563C154.735 312.613 153.756 312.542 152.559 312.283L152.576 311.757L154.87 310.951L155.958 312.563Z"/><path fill="#121042" d="M667.092 832.294C673.625 829.268 688.638 828.831 696.583 827.79C704.763 826.718 712.94 825.175 721.1 823.919C728.659 822.755 736.601 821.94 743.993 819.962C740.661 827.303 739.648 837.005 738.348 844.945C749.588 851.332 757.558 859.886 761.118 872.586C764.224 883.667 763.348 896.436 757.541 906.486C756.41 908.444 755.113 910.404 753.558 912.054C751.294 917.298 743.2 923.003 738.236 925.641C726.695 931.669 713.224 932.838 700.817 928.886C688.815 925.086 678.815 916.674 673.015 905.501C667.318 894.444 666.304 881.561 670.203 869.749C674.082 857.881 682.508 848.034 693.634 842.367L695.165 841.461C696.572 838.914 693.851 832.162 693.114 829.261C684.381 829.796 675.785 831.943 667.092 832.294Z"/><path fill="#7B79EC" d="M667.092 832.294C673.625 829.268 688.638 828.831 696.583 827.79C704.763 826.718 712.94 825.175 721.1 823.919C728.659 822.755 736.601 821.94 743.993 819.962C740.661 827.303 739.648 837.005 738.348 844.945C749.588 851.332 757.558 859.886 761.118 872.586C764.224 883.667 763.348 896.436 757.541 906.486C756.41 908.444 755.113 910.404 753.558 912.054C754.801 909.027 756.603 906.236 757.818 903.168C762.293 891.873 761.482 876.672 756.571 865.655C752.872 857.356 746.107 850.064 737.587 846.766C736.327 858.857 733.98 891.506 725.311 899.181C722.724 901.471 719.354 902.679 715.897 902.329C700.984 900.818 700.095 881.004 699.209 869.718L697.847 851.953C697.634 849.257 697.756 844.74 696.096 842.589L693.634 842.367L695.165 841.461C696.572 838.914 693.851 832.162 693.114 829.261C684.381 829.796 675.785 831.943 667.092 832.294Z"/><path fill="#121042" d="M207.42 844.295C211.448 843.948 252.382 847.589 254.987 848.607C254.801 852.274 253.791 858.053 254.689 861.518C262.582 865.964 268.888 873.047 272.921 881.101C278.018 891.278 279.745 902.862 275.988 913.769C272.122 924.992 263.332 934.853 252.629 939.998C241.91 945.049 229.633 945.673 218.458 941.734C207.258 937.788 197.249 928.961 192.21 918.175C187.021 907.07 185.793 893.015 190.084 881.434C193.702 871.808 200.976 864.001 210.322 859.713C210.953 859.201 210.784 859.462 211.101 858.724C211.676 857.382 209.245 846.343 208.49 844.521L207.42 844.295Z"/><path fill="#7B79EC" d="M207.42 844.295C211.448 843.948 252.382 847.589 254.987 848.607C254.801 852.274 253.791 858.053 254.689 861.518C252.769 864.513 251.029 893.254 248.461 901.06C246.91 905.774 244.09 910.665 239.432 912.856C236.953 914.023 234.368 914.073 231.818 913.087C218.351 907.878 217.198 882.966 215.052 870.974C214.504 867.909 214.102 864.19 212.709 861.4C212.089 860.159 211.566 860.181 210.322 859.713C210.953 859.201 210.784 859.462 211.101 858.724C211.676 857.382 209.245 846.343 208.49 844.521L207.42 844.295Z"/><path fill="#7B79EC" d="M638.299 127.997C639.322 128.513 640.103 128.79 641.254 128.904C646.685 129.446 652.579 129.003 658.05 128.98L690.452 128.852L778.852 128.24C793.236 128.12 807.651 127.629 822.033 127.813C821.485 135.391 821.983 142.517 822.762 150.038C808.454 149.541 794 150.282 779.681 150.474C759.366 150.745 739.033 150.641 718.716 150.674L666.419 150.689C657.842 150.675 648.701 150.038 640.185 150.762C637.999 150.948 636.628 151.765 634.835 152.962C634.849 152.841 634.844 152.717 634.877 152.6C635.34 150.955 637.071 150.105 638.395 149.114C638.469 145.02 639.275 132.67 638.372 129.58C638.081 128.584 638.125 129.132 638.299 127.997Z"/><path fill="#41C2B3" d="M532.979 135.656C533.522 133.948 534.089 132.208 534.799 130.562C536.102 127.544 538.38 124.842 541.577 123.758C547.298 121.82 619.264 122.12 629.285 122.799C631.094 122.922 632.494 123.285 634.13 124.062C635.421 124.847 637.515 125.828 638.139 127.309C638.23 127.526 638.246 127.768 638.299 127.997C638.125 129.132 638.081 128.584 638.372 129.58C639.275 132.67 638.469 145.02 638.395 149.114C637.071 150.105 635.34 150.955 634.877 152.6C634.844 152.717 634.849 152.841 634.835 152.962C633.954 153.911 633.399 154.127 632.158 154.462C631.495 154.63 631.248 154.71 630.612 154.817C624.154 155.9 544.95 155.657 541.365 154.328C536.45 152.505 537.271 147.989 534.017 145.578L531.407 146.029C531.819 145.845 532.358 145.613 532.743 145.404C533.872 144.789 534.465 144.52 534.718 143.183C534.93 142.064 534.778 140.289 534.134 139.341C530.149 137.613 523.796 141.841 519.261 141.609C519.108 141.602 518.956 141.587 518.803 141.576C523.371 139.311 528.374 137.935 532.979 135.656Z"/><defs><linearGradient id="gradient_0" gradientUnits="userSpaceOnUse" x1="622.76965" y1="133.34711" x2="638.99146" y2="144.57578"><stop offset="0" stop-color="#4E8FCA"/><stop offset="1" stop-color="#5D7CDE"/></linearGradient></defs><path fill="url(#gradient_0)" d="M634.13 124.062C635.421 124.847 637.515 125.828 638.139 127.309C638.23 127.526 638.246 127.768 638.299 127.997C638.125 129.132 638.081 128.584 638.372 129.58C639.275 132.67 638.469 145.02 638.395 149.114C637.071 150.105 635.34 150.955 634.877 152.6C634.844 152.717 634.849 152.841 634.835 152.962C633.954 153.911 633.399 154.127 632.158 154.462C632.097 154.428 632.039 154.385 631.974 154.36C631.343 154.119 630.692 153.938 630.078 153.652C626.487 151.979 623.197 147.472 621.996 143.83C620.612 139.631 621.252 134.871 623.287 130.993C624.485 128.712 627.331 125.116 629.859 124.3C631.105 124.442 632.355 124.689 633.577 124.305C633.769 124.245 633.946 124.143 634.13 124.062Z"/><path fill="#41C2B3" d="M822.033 127.813C822.892 126.717 823.767 125.545 824.84 124.651C826.347 123.395 827.895 122.925 829.811 122.668C838.879 121.45 850.397 122.411 859.729 122.355C878.116 122.245 897.097 121.122 915.411 122.719L915.323 123.092C912.005 123.853 908.944 125.903 907.157 128.842C904.572 133.092 904.717 138.144 904.593 142.932C899.172 145.124 880.52 153.648 876.093 153.866C872.103 152.012 839.423 154.104 831.996 153.659C828.297 153.438 825.315 152.904 822.762 150.038C821.983 142.517 821.485 135.391 822.033 127.813Z"/></svg>